#include <stdint.h>
#include <stdbool.h>

#include "efm32gg.h"
#include "sound.h"

#define DETUNE  (8 << 21)

/*
 * This is the startup melody for the exercise.
 * It is kept in its own file due to its size.
 * Not compressed on purpose.
 */

const uint32_t jingle0[] =
{
	WAVE_SAWTOOTH | VOLUME_63 | 1 | NOTE_E_4,
	WAVE_SAWTOOTH | VOLUME_55 | 1 | NOTE_E_4,
	WAVE_SAWTOOTH | VOLUME_48 | 1 | NOTE_E_4,
	WAVE_SAWTOOTH | VOLUME_42 | 1 | NOTE_E_4,
	WAVE_SAWTOOTH | VOLUME_37 | 1 | NOTE_E_4,
	WAVE_SAWTOOTH | VOLUME_33 | 1 | NOTE_E_4,
	WAVE_SAWTOOTH | VOLUME_28 | 1 | NOTE_E_4,
	WAVE_SAWTOOTH | VOLUME_25 | 1 | NOTE_E_4,
	WAVE_SAWTOOTH | VOLUME_22 | 1 | NOTE_E_4,
	WAVE_SAWTOOTH | VOLUME_19 | 1 | NOTE_E_4,
	WAVE_SAWTOOTH | VOLUME_16 | 1 | NOTE_E_4,
	WAVE_SAWTOOTH | VOLUME_14 | 1 | NOTE_E_4,
	WAVE_SAWTOOTH | VOLUME_12 | 1 | NOTE_E_4,
	WAVE_SAWTOOTH | VOLUME_10 | 1 | NOTE_E_4,
	WAVE_SAWTOOTH | VOLUME_09 | 1 | NOTE_E_4,
	WAVE_SAWTOOTH | VOLUME_07 | 1 | NOTE_E_4,

	WAVE_SAWTOOTH | VOLUME_63 | 1 | NOTE_F_4,
	WAVE_SAWTOOTH | VOLUME_55 | 1 | NOTE_F_4,
	WAVE_SAWTOOTH | VOLUME_48 | 1 | NOTE_F_4,
	WAVE_SAWTOOTH | VOLUME_42 | 1 | NOTE_F_4,
	WAVE_SAWTOOTH | VOLUME_37 | 1 | NOTE_F_4,
	WAVE_SAWTOOTH | VOLUME_33 | 1 | NOTE_F_4,
	WAVE_SAWTOOTH | VOLUME_28 | 1 | NOTE_F_4,
	WAVE_SAWTOOTH | VOLUME_25 | 1 | NOTE_F_4,
	WAVE_SAWTOOTH | VOLUME_22 | 1 | NOTE_F_4,
	WAVE_SAWTOOTH | VOLUME_19 | 1 | NOTE_F_4,

	WAVE_SAWTOOTH | VOLUME_63 | 1 | NOTE_G_4,
	WAVE_SAWTOOTH | VOLUME_55 | 1 | NOTE_G_4,
	WAVE_SAWTOOTH | VOLUME_48 | 1 | NOTE_G_4,
	WAVE_SAWTOOTH | VOLUME_42 | 1 | NOTE_G_4,
	WAVE_SAWTOOTH | VOLUME_37 | 1 | NOTE_G_4,
	WAVE_SAWTOOTH | VOLUME_33 | 1 | NOTE_G_4,
	WAVE_SAWTOOTH | VOLUME_28 | 1 | NOTE_G_4,
	WAVE_SAWTOOTH | VOLUME_25 | 1 | NOTE_G_4,
	WAVE_SAWTOOTH | VOLUME_22 | 1 | NOTE_G_4,
	WAVE_SAWTOOTH | VOLUME_19 | 1 | NOTE_G_4,
	WAVE_SAWTOOTH | VOLUME_16 | 1 | NOTE_G_4,
	WAVE_SAWTOOTH | VOLUME_14 | 1 | NOTE_G_4,
	WAVE_SAWTOOTH | VOLUME_12 | 1 | NOTE_G_4,
	WAVE_SAWTOOTH | VOLUME_10 | 1 | NOTE_G_4,
	WAVE_SAWTOOTH | VOLUME_09 | 1 | NOTE_G_4,
	WAVE_SAWTOOTH | VOLUME_07 | 1 | NOTE_G_4,
	WAVE_SAWTOOTH | VOLUME_06 | 1 | NOTE_G_4,
	WAVE_SAWTOOTH | VOLUME_05 | 1 | NOTE_G_4,
	WAVE_SAWTOOTH | VOLUME_04 | 1 | NOTE_G_4,
	WAVE_SAWTOOTH | VOLUME_03 | 1 | NOTE_G_4,
	WAVE_SAWTOOTH | VOLUME_02 | 2 | NOTE_G_4,
	WAVE_SAWTOOTH | VOLUME_01 | 1 | NOTE_G_4,
	WAVE_SAWTOOTH | VOLUME_00 | 3,

	WAVE_SAWTOOTH | VOLUME_63 | 1 | NOTE_C_5,
	WAVE_SAWTOOTH | VOLUME_55 | 1 | NOTE_C_5,
	WAVE_SAWTOOTH | VOLUME_48 | 1 | NOTE_C_5,
	WAVE_SAWTOOTH | VOLUME_42 | 1 | NOTE_C_5,
	WAVE_SAWTOOTH | VOLUME_37 | 1 | NOTE_C_5,
	WAVE_SAWTOOTH | VOLUME_33 | 1 | NOTE_C_5,
	WAVE_SAWTOOTH | VOLUME_28 | 1 | NOTE_C_5,
	WAVE_SAWTOOTH | VOLUME_25 | 1 | NOTE_C_5,
	WAVE_SAWTOOTH | VOLUME_22 | 1 | NOTE_C_5,
	WAVE_SAWTOOTH | VOLUME_19 | 1 | NOTE_C_5,
	WAVE_SAWTOOTH | VOLUME_16 | 1 | NOTE_C_5,
	WAVE_SAWTOOTH | VOLUME_14 | 1 | NOTE_C_5,
	WAVE_SAWTOOTH | VOLUME_12 | 1 | NOTE_C_5,
	WAVE_SAWTOOTH | VOLUME_10 | 1 | NOTE_C_5,
	WAVE_SAWTOOTH | VOLUME_09 | 1 | NOTE_C_5,
	WAVE_SAWTOOTH | VOLUME_07 | 1 | NOTE_C_5,

	WAVE_SAWTOOTH | VOLUME_63 | 1 | NOTE_D_5,
	WAVE_SAWTOOTH | VOLUME_55 | 1 | NOTE_D_5,
	WAVE_SAWTOOTH | VOLUME_48 | 1 | NOTE_D_5,
	WAVE_SAWTOOTH | VOLUME_42 | 1 | NOTE_D_5,
	WAVE_SAWTOOTH | VOLUME_37 | 1 | NOTE_D_5,
	WAVE_SAWTOOTH | VOLUME_33 | 1 | NOTE_D_5,
	WAVE_SAWTOOTH | VOLUME_28 | 1 | NOTE_D_5,
	WAVE_SAWTOOTH | VOLUME_25 | 1 | NOTE_D_5,
	WAVE_SAWTOOTH | VOLUME_22 | 1 | NOTE_D_5,
	WAVE_SAWTOOTH | VOLUME_19 | 1 | NOTE_D_5,

	WAVE_SAWTOOTH | VOLUME_63 | 1 | NOTE_E_5,
	WAVE_SAWTOOTH | VOLUME_55 | 1 | NOTE_E_5,
	WAVE_SAWTOOTH | VOLUME_48 | 1 | NOTE_E_5,
	WAVE_SAWTOOTH | VOLUME_42 | 1 | NOTE_E_5,
	WAVE_SAWTOOTH | VOLUME_37 | 1 | NOTE_E_5,
	WAVE_SAWTOOTH | VOLUME_33 | 1 | NOTE_E_5,
	WAVE_SAWTOOTH | VOLUME_28 | 1 | NOTE_E_5,
	WAVE_SAWTOOTH | VOLUME_25 | 1 | NOTE_E_5,
	WAVE_SAWTOOTH | VOLUME_22 | 1 | NOTE_E_5,
	WAVE_SAWTOOTH | VOLUME_19 | 1 | NOTE_E_5,
	WAVE_SAWTOOTH | VOLUME_16 | 1 | NOTE_E_5,
	WAVE_SAWTOOTH | VOLUME_14 | 1 | NOTE_E_5,
	WAVE_SAWTOOTH | VOLUME_12 | 1 | NOTE_E_5,
	WAVE_SAWTOOTH | VOLUME_10 | 1 | NOTE_E_5,
	WAVE_SAWTOOTH | VOLUME_09 | 1 | NOTE_E_5,
	WAVE_SAWTOOTH | VOLUME_07 | 1 | NOTE_E_5,
	WAVE_SAWTOOTH | VOLUME_06 | 1 | NOTE_E_5,
	WAVE_SAWTOOTH | VOLUME_05 | 1 | NOTE_E_5,
	WAVE_SAWTOOTH | VOLUME_04 | 1 | NOTE_E_5,
	WAVE_SAWTOOTH | VOLUME_03 | 1 | NOTE_E_5,
	WAVE_SAWTOOTH | VOLUME_02 | 2 | NOTE_E_5,
	WAVE_SAWTOOTH | VOLUME_01 | 1 | NOTE_E_5,
	WAVE_SAWTOOTH | VOLUME_00 | 3,

	WAVE_SAWTOOTH | VOLUME_63 | 1 | NOTE_G_5,
	WAVE_SAWTOOTH | VOLUME_55 | 1 | NOTE_G_5,
	WAVE_SAWTOOTH | VOLUME_48 | 1 | NOTE_G_5,
	WAVE_SAWTOOTH | VOLUME_42 | 1 | NOTE_G_5,
	WAVE_SAWTOOTH | VOLUME_37 | 1 | NOTE_G_5,
	WAVE_SAWTOOTH | VOLUME_33 | 1 | NOTE_G_5,
	WAVE_SAWTOOTH | VOLUME_28 | 1 | NOTE_G_5,
	WAVE_SAWTOOTH | VOLUME_25 | 1 | NOTE_G_5,
	WAVE_SAWTOOTH | VOLUME_22 | 1 | NOTE_G_5,
	WAVE_SAWTOOTH | VOLUME_19 | 1 | NOTE_G_5,
	WAVE_SAWTOOTH | VOLUME_16 | 1 | NOTE_G_5,
	WAVE_SAWTOOTH | VOLUME_14 | 1 | NOTE_G_5,
	WAVE_SAWTOOTH | VOLUME_12 | 1 | NOTE_G_5,
	WAVE_SAWTOOTH | VOLUME_10 | 1 | NOTE_G_5,
	WAVE_SAWTOOTH | VOLUME_09 | 1 | NOTE_G_5,
	WAVE_SAWTOOTH | VOLUME_07 | 1 | NOTE_G_5,

	WAVE_SAWTOOTH | VOLUME_63 | 1 | NOTE_C_6,
	WAVE_SAWTOOTH | VOLUME_55 | 1 | NOTE_C_6,
	WAVE_SAWTOOTH | VOLUME_48 | 1 | NOTE_C_6,
	WAVE_SAWTOOTH | VOLUME_42 | 1 | NOTE_C_6,
	WAVE_SAWTOOTH | VOLUME_37 | 1 | NOTE_C_6,
	WAVE_SAWTOOTH | VOLUME_33 | 1 | NOTE_C_6,
	WAVE_SAWTOOTH | VOLUME_28 | 1 | NOTE_C_6,
	WAVE_SAWTOOTH | VOLUME_25 | 1 | NOTE_C_6,
	WAVE_SAWTOOTH | VOLUME_22 | 1 | NOTE_C_6,
	WAVE_SAWTOOTH | VOLUME_19 | 1 | NOTE_C_6,

	WAVE_SAWTOOTH | VOLUME_63 | 1 | NOTE_G_5,
	WAVE_SAWTOOTH | VOLUME_55 | 1 | NOTE_G_5,
	WAVE_SAWTOOTH | VOLUME_48 | 1 | NOTE_G_5,
	WAVE_SAWTOOTH | VOLUME_42 | 1 | NOTE_G_5,
	WAVE_SAWTOOTH | VOLUME_37 | 1 | NOTE_G_5,
	WAVE_SAWTOOTH | VOLUME_33 | 1 | NOTE_G_5,
	WAVE_SAWTOOTH | VOLUME_28 | 1 | NOTE_G_5,
	WAVE_SAWTOOTH | VOLUME_25 | 1 | NOTE_G_5,
	WAVE_SAWTOOTH | VOLUME_22 | 1 | NOTE_G_5,
	WAVE_SAWTOOTH | VOLUME_19 | 1 | NOTE_G_5,
	WAVE_SAWTOOTH | VOLUME_16 | 1 | NOTE_G_5,
	WAVE_SAWTOOTH | VOLUME_14 | 1 | NOTE_G_5,
	WAVE_SAWTOOTH | VOLUME_12 | 1 | NOTE_G_5,
	WAVE_SAWTOOTH | VOLUME_10 | 1 | NOTE_G_5,
	WAVE_SAWTOOTH | VOLUME_09 | 1 | NOTE_G_5,
	WAVE_SAWTOOTH | VOLUME_07 | 1 | NOTE_G_5,

	WAVE_SAWTOOTH | VOLUME_63 | 1 | NOTE_F_5,
	WAVE_SAWTOOTH | VOLUME_55 | 1 | NOTE_F_5,
	WAVE_SAWTOOTH | VOLUME_48 | 1 | NOTE_F_5,
	WAVE_SAWTOOTH | VOLUME_42 | 1 | NOTE_F_5,
	WAVE_SAWTOOTH | VOLUME_37 | 1 | NOTE_F_5,
	WAVE_SAWTOOTH | VOLUME_33 | 1 | NOTE_F_5,
	WAVE_SAWTOOTH | VOLUME_28 | 1 | NOTE_F_5,
	WAVE_SAWTOOTH | VOLUME_25 | 1 | NOTE_F_5,
	WAVE_SAWTOOTH | VOLUME_22 | 1 | NOTE_F_5,
	WAVE_SAWTOOTH | VOLUME_19 | 1 | NOTE_F_5,

	WAVE_SAWTOOTH | VOLUME_63 | 1 | NOTE_E_5,
	WAVE_SAWTOOTH | VOLUME_55 | 1 | NOTE_E_5,
	WAVE_SAWTOOTH | VOLUME_48 | 1 | NOTE_E_5,
	WAVE_SAWTOOTH | VOLUME_42 | 1 | NOTE_E_5,
	WAVE_SAWTOOTH | VOLUME_37 | 1 | NOTE_E_5,
	WAVE_SAWTOOTH | VOLUME_33 | 1 | NOTE_E_5,
	WAVE_SAWTOOTH | VOLUME_28 | 1 | NOTE_E_5,
	WAVE_SAWTOOTH | VOLUME_25 | 1 | NOTE_E_5,
	WAVE_SAWTOOTH | VOLUME_22 | 1 | NOTE_E_5,
	WAVE_SAWTOOTH | VOLUME_19 | 1 | NOTE_E_5,
	WAVE_SAWTOOTH | VOLUME_16 | 1 | NOTE_E_5,
	WAVE_SAWTOOTH | VOLUME_14 | 1 | NOTE_E_5,
	WAVE_SAWTOOTH | VOLUME_12 | 1 | NOTE_E_5,
	WAVE_SAWTOOTH | VOLUME_10 | 1 | NOTE_E_5,
	WAVE_SAWTOOTH | VOLUME_09 | 1 | NOTE_E_5,
	WAVE_SAWTOOTH | VOLUME_07 | 1 | NOTE_E_5,
	WAVE_SAWTOOTH | VOLUME_06 | 1 | NOTE_E_5,
	WAVE_SAWTOOTH | VOLUME_05 | 1 | NOTE_E_5,
	WAVE_SAWTOOTH | VOLUME_04 | 1 | NOTE_E_5,
	WAVE_SAWTOOTH | VOLUME_03 | 1 | NOTE_E_5,
	WAVE_SAWTOOTH | VOLUME_02 | 2 | NOTE_E_5,
	WAVE_SAWTOOTH | VOLUME_01 | 1 | NOTE_E_5,
	WAVE_SAWTOOTH | VOLUME_00 | 3,

	WAVE_SAWTOOTH | VOLUME_63 | 1 | NOTE_D_5,
	WAVE_SAWTOOTH | VOLUME_55 | 1 | NOTE_D_5,
	WAVE_SAWTOOTH | VOLUME_48 | 1 | NOTE_D_5,
	WAVE_SAWTOOTH | VOLUME_42 | 1 | NOTE_D_5,
	WAVE_SAWTOOTH | VOLUME_37 | 1 | NOTE_D_5,
	WAVE_SAWTOOTH | VOLUME_33 | 1 | NOTE_D_5,
	WAVE_SAWTOOTH | VOLUME_28 | 1 | NOTE_D_5,
	WAVE_SAWTOOTH | VOLUME_25 | 1 | NOTE_D_5,
	WAVE_SAWTOOTH | VOLUME_22 | 1 | NOTE_D_5,
	WAVE_SAWTOOTH | VOLUME_19 | 1 | NOTE_D_5,
	WAVE_SAWTOOTH | VOLUME_16 | 1 | NOTE_D_5,
	WAVE_SAWTOOTH | VOLUME_14 | 1 | NOTE_D_5,
	WAVE_SAWTOOTH | VOLUME_12 | 1 | NOTE_D_5,
	WAVE_SAWTOOTH | VOLUME_10 | 1 | NOTE_D_5,
	WAVE_SAWTOOTH | VOLUME_09 | 1 | NOTE_D_5,
	WAVE_SAWTOOTH | VOLUME_07 | 1 | NOTE_D_5,
	WAVE_SAWTOOTH | VOLUME_06 | 1 | NOTE_D_5,
	WAVE_SAWTOOTH | VOLUME_05 | 1 | NOTE_D_5,
	WAVE_SAWTOOTH | VOLUME_04 | 1 | NOTE_D_5,
	WAVE_SAWTOOTH | VOLUME_03 | 1 | NOTE_D_5,
	WAVE_SAWTOOTH | VOLUME_02 | 2 | NOTE_D_5,
	WAVE_SAWTOOTH | VOLUME_01 | 1 | NOTE_D_5,
	WAVE_SAWTOOTH | VOLUME_00 | 3,

	WAVE_SAWTOOTH | VOLUME_63 | 1 | NOTE_E_4,
	WAVE_SAWTOOTH | VOLUME_55 | 1 | NOTE_E_4,
	WAVE_SAWTOOTH | VOLUME_48 | 1 | NOTE_E_4,
	WAVE_SAWTOOTH | VOLUME_42 | 1 | NOTE_E_4,
	WAVE_SAWTOOTH | VOLUME_37 | 1 | NOTE_E_4,
	WAVE_SAWTOOTH | VOLUME_33 | 1 | NOTE_E_4,
	WAVE_SAWTOOTH | VOLUME_28 | 1 | NOTE_E_4,
	WAVE_SAWTOOTH | VOLUME_25 | 1 | NOTE_E_4,
	WAVE_SAWTOOTH | VOLUME_22 | 1 | NOTE_E_4,
	WAVE_SAWTOOTH | VOLUME_19 | 1 | NOTE_E_4,
	WAVE_SAWTOOTH | VOLUME_16 | 1 | NOTE_E_4,
	WAVE_SAWTOOTH | VOLUME_14 | 1 | NOTE_E_4,
	WAVE_SAWTOOTH | VOLUME_12 | 1 | NOTE_E_4,
	WAVE_SAWTOOTH | VOLUME_10 | 1 | NOTE_E_4,
	WAVE_SAWTOOTH | VOLUME_09 | 1 | NOTE_E_4,
	WAVE_SAWTOOTH | VOLUME_07 | 1 | NOTE_E_4,

	WAVE_SAWTOOTH | VOLUME_63 | 1 | NOTE_F_4,
	WAVE_SAWTOOTH | VOLUME_55 | 1 | NOTE_F_4,
	WAVE_SAWTOOTH | VOLUME_48 | 1 | NOTE_F_4,
	WAVE_SAWTOOTH | VOLUME_42 | 1 | NOTE_F_4,
	WAVE_SAWTOOTH | VOLUME_37 | 1 | NOTE_F_4,
	WAVE_SAWTOOTH | VOLUME_33 | 1 | NOTE_F_4,
	WAVE_SAWTOOTH | VOLUME_28 | 1 | NOTE_F_4,
	WAVE_SAWTOOTH | VOLUME_25 | 1 | NOTE_F_4,
	WAVE_SAWTOOTH | VOLUME_22 | 1 | NOTE_F_4,
	WAVE_SAWTOOTH | VOLUME_19 | 1 | NOTE_F_4,

	WAVE_SAWTOOTH | VOLUME_63 | 1 | NOTE_G_4,
	WAVE_SAWTOOTH | VOLUME_55 | 1 | NOTE_G_4,
	WAVE_SAWTOOTH | VOLUME_48 | 1 | NOTE_G_4,
	WAVE_SAWTOOTH | VOLUME_42 | 1 | NOTE_G_4,
	WAVE_SAWTOOTH | VOLUME_37 | 1 | NOTE_G_4,
	WAVE_SAWTOOTH | VOLUME_33 | 1 | NOTE_G_4,
	WAVE_SAWTOOTH | VOLUME_28 | 1 | NOTE_G_4,
	WAVE_SAWTOOTH | VOLUME_25 | 1 | NOTE_G_4,
	WAVE_SAWTOOTH | VOLUME_22 | 1 | NOTE_G_4,
	WAVE_SAWTOOTH | VOLUME_19 | 1 | NOTE_G_4,
	WAVE_SAWTOOTH | VOLUME_16 | 1 | NOTE_G_4,
	WAVE_SAWTOOTH | VOLUME_14 | 1 | NOTE_G_4,
	WAVE_SAWTOOTH | VOLUME_12 | 1 | NOTE_G_4,
	WAVE_SAWTOOTH | VOLUME_10 | 1 | NOTE_G_4,
	WAVE_SAWTOOTH | VOLUME_09 | 1 | NOTE_G_4,
	WAVE_SAWTOOTH | VOLUME_07 | 1 | NOTE_G_4,
	WAVE_SAWTOOTH | VOLUME_06 | 1 | NOTE_G_4,
	WAVE_SAWTOOTH | VOLUME_05 | 1 | NOTE_G_4,
	WAVE_SAWTOOTH | VOLUME_04 | 1 | NOTE_G_4,
	WAVE_SAWTOOTH | VOLUME_03 | 1 | NOTE_G_4,
	WAVE_SAWTOOTH | VOLUME_02 | 2 | NOTE_G_4,
	WAVE_SAWTOOTH | VOLUME_01 | 1 | NOTE_G_4,
	WAVE_SAWTOOTH | VOLUME_00 | 3,

	WAVE_SAWTOOTH | VOLUME_63 | 1 | NOTE_C_5,
	WAVE_SAWTOOTH | VOLUME_55 | 1 | NOTE_C_5,
	WAVE_SAWTOOTH | VOLUME_48 | 1 | NOTE_C_5,
	WAVE_SAWTOOTH | VOLUME_42 | 1 | NOTE_C_5,
	WAVE_SAWTOOTH | VOLUME_37 | 1 | NOTE_C_5,
	WAVE_SAWTOOTH | VOLUME_33 | 1 | NOTE_C_5,
	WAVE_SAWTOOTH | VOLUME_28 | 1 | NOTE_C_5,
	WAVE_SAWTOOTH | VOLUME_25 | 1 | NOTE_C_5,
	WAVE_SAWTOOTH | VOLUME_22 | 1 | NOTE_C_5,
	WAVE_SAWTOOTH | VOLUME_19 | 1 | NOTE_C_5,
	WAVE_SAWTOOTH | VOLUME_16 | 1 | NOTE_C_5,
	WAVE_SAWTOOTH | VOLUME_14 | 1 | NOTE_C_5,
	WAVE_SAWTOOTH | VOLUME_12 | 1 | NOTE_C_5,
	WAVE_SAWTOOTH | VOLUME_10 | 1 | NOTE_C_5,
	WAVE_SAWTOOTH | VOLUME_09 | 1 | NOTE_C_5,
	WAVE_SAWTOOTH | VOLUME_07 | 1 | NOTE_C_5,

	WAVE_SAWTOOTH | VOLUME_63 | 1 | NOTE_D_5,
	WAVE_SAWTOOTH | VOLUME_55 | 1 | NOTE_D_5,
	WAVE_SAWTOOTH | VOLUME_48 | 1 | NOTE_D_5,
	WAVE_SAWTOOTH | VOLUME_42 | 1 | NOTE_D_5,
	WAVE_SAWTOOTH | VOLUME_37 | 1 | NOTE_D_5,
	WAVE_SAWTOOTH | VOLUME_33 | 1 | NOTE_D_5,
	WAVE_SAWTOOTH | VOLUME_28 | 1 | NOTE_D_5,
	WAVE_SAWTOOTH | VOLUME_25 | 1 | NOTE_D_5,
	WAVE_SAWTOOTH | VOLUME_22 | 1 | NOTE_D_5,
	WAVE_SAWTOOTH | VOLUME_19 | 1 | NOTE_D_5,

	WAVE_SAWTOOTH | VOLUME_63 | 1 | NOTE_E_5,
	WAVE_SAWTOOTH | VOLUME_55 | 1 | NOTE_E_5,
	WAVE_SAWTOOTH | VOLUME_48 | 1 | NOTE_E_5,
	WAVE_SAWTOOTH | VOLUME_42 | 1 | NOTE_E_5,
	WAVE_SAWTOOTH | VOLUME_37 | 1 | NOTE_E_5,
	WAVE_SAWTOOTH | VOLUME_33 | 1 | NOTE_E_5,
	WAVE_SAWTOOTH | VOLUME_28 | 1 | NOTE_E_5,
	WAVE_SAWTOOTH | VOLUME_25 | 1 | NOTE_E_5,
	WAVE_SAWTOOTH | VOLUME_22 | 1 | NOTE_E_5,
	WAVE_SAWTOOTH | VOLUME_19 | 1 | NOTE_E_5,
	WAVE_SAWTOOTH | VOLUME_16 | 1 | NOTE_E_5,
	WAVE_SAWTOOTH | VOLUME_14 | 1 | NOTE_E_5,
	WAVE_SAWTOOTH | VOLUME_12 | 1 | NOTE_E_5,
	WAVE_SAWTOOTH | VOLUME_10 | 1 | NOTE_E_5,
	WAVE_SAWTOOTH | VOLUME_09 | 1 | NOTE_E_5,
	WAVE_SAWTOOTH | VOLUME_07 | 1 | NOTE_E_5,
	WAVE_SAWTOOTH | VOLUME_06 | 1 | NOTE_E_5,
	WAVE_SAWTOOTH | VOLUME_05 | 1 | NOTE_E_5,
	WAVE_SAWTOOTH | VOLUME_04 | 1 | NOTE_E_5,
	WAVE_SAWTOOTH | VOLUME_03 | 1 | NOTE_E_5,
	WAVE_SAWTOOTH | VOLUME_02 | 2 | NOTE_E_5,
	WAVE_SAWTOOTH | VOLUME_01 | 1 | NOTE_E_5,
	WAVE_SAWTOOTH | VOLUME_00 | 3,

	WAVE_SAWTOOTH | VOLUME_63 | 1 | NOTE_G_5,
	WAVE_SAWTOOTH | VOLUME_55 | 1 | NOTE_G_5,
	WAVE_SAWTOOTH | VOLUME_48 | 1 | NOTE_G_5,
	WAVE_SAWTOOTH | VOLUME_42 | 1 | NOTE_G_5,
	WAVE_SAWTOOTH | VOLUME_37 | 1 | NOTE_G_5,
	WAVE_SAWTOOTH | VOLUME_33 | 1 | NOTE_G_5,
	WAVE_SAWTOOTH | VOLUME_28 | 1 | NOTE_G_5,
	WAVE_SAWTOOTH | VOLUME_25 | 1 | NOTE_G_5,
	WAVE_SAWTOOTH | VOLUME_22 | 1 | NOTE_G_5,
	WAVE_SAWTOOTH | VOLUME_19 | 1 | NOTE_G_5,
	WAVE_SAWTOOTH | VOLUME_16 | 1 | NOTE_G_5,
	WAVE_SAWTOOTH | VOLUME_14 | 1 | NOTE_G_5,
	WAVE_SAWTOOTH | VOLUME_12 | 1 | NOTE_G_5,
	WAVE_SAWTOOTH | VOLUME_10 | 1 | NOTE_G_5,
	WAVE_SAWTOOTH | VOLUME_09 | 1 | NOTE_G_5,
	WAVE_SAWTOOTH | VOLUME_07 | 1 | NOTE_G_5,

	WAVE_SAWTOOTH | VOLUME_63 | 1 | NOTE_C_6,
	WAVE_SAWTOOTH | VOLUME_55 | 1 | NOTE_C_6,
	WAVE_SAWTOOTH | VOLUME_48 | 1 | NOTE_C_6,
	WAVE_SAWTOOTH | VOLUME_42 | 1 | NOTE_C_6,
	WAVE_SAWTOOTH | VOLUME_37 | 1 | NOTE_C_6,
	WAVE_SAWTOOTH | VOLUME_33 | 1 | NOTE_C_6,
	WAVE_SAWTOOTH | VOLUME_28 | 1 | NOTE_C_6,
	WAVE_SAWTOOTH | VOLUME_25 | 1 | NOTE_C_6,
	WAVE_SAWTOOTH | VOLUME_22 | 1 | NOTE_C_6,
	WAVE_SAWTOOTH | VOLUME_19 | 1 | NOTE_C_6,

	WAVE_SAWTOOTH | VOLUME_63 | 1 | NOTE_G_5,
	WAVE_SAWTOOTH | VOLUME_55 | 1 | NOTE_G_5,
	WAVE_SAWTOOTH | VOLUME_48 | 1 | NOTE_G_5,
	WAVE_SAWTOOTH | VOLUME_42 | 1 | NOTE_G_5,
	WAVE_SAWTOOTH | VOLUME_37 | 1 | NOTE_G_5,
	WAVE_SAWTOOTH | VOLUME_33 | 1 | NOTE_G_5,
	WAVE_SAWTOOTH | VOLUME_28 | 1 | NOTE_G_5,
	WAVE_SAWTOOTH | VOLUME_25 | 1 | NOTE_G_5,
	WAVE_SAWTOOTH | VOLUME_22 | 1 | NOTE_G_5,
	WAVE_SAWTOOTH | VOLUME_19 | 1 | NOTE_G_5,
	WAVE_SAWTOOTH | VOLUME_16 | 1 | NOTE_G_5,
	WAVE_SAWTOOTH | VOLUME_14 | 1 | NOTE_G_5,
	WAVE_SAWTOOTH | VOLUME_12 | 1 | NOTE_G_5,
	WAVE_SAWTOOTH | VOLUME_10 | 1 | NOTE_G_5,
	WAVE_SAWTOOTH | VOLUME_09 | 1 | NOTE_G_5,
	WAVE_SAWTOOTH | VOLUME_07 | 1 | NOTE_G_5,

	WAVE_SAWTOOTH | VOLUME_63 | 1 | NOTE_F_5,
	WAVE_SAWTOOTH | VOLUME_55 | 1 | NOTE_F_5,
	WAVE_SAWTOOTH | VOLUME_48 | 1 | NOTE_F_5,
	WAVE_SAWTOOTH | VOLUME_42 | 1 | NOTE_F_5,
	WAVE_SAWTOOTH | VOLUME_37 | 1 | NOTE_F_5,
	WAVE_SAWTOOTH | VOLUME_33 | 1 | NOTE_F_5,
	WAVE_SAWTOOTH | VOLUME_28 | 1 | NOTE_F_5,
	WAVE_SAWTOOTH | VOLUME_25 | 1 | NOTE_F_5,
	WAVE_SAWTOOTH | VOLUME_22 | 1 | NOTE_F_5,
	WAVE_SAWTOOTH | VOLUME_19 | 1 | NOTE_F_5,

	WAVE_SAWTOOTH | VOLUME_63 | 1 | NOTE_E_5,
	WAVE_SAWTOOTH | VOLUME_55 | 1 | NOTE_E_5,
	WAVE_SAWTOOTH | VOLUME_48 | 1 | NOTE_E_5,
	WAVE_SAWTOOTH | VOLUME_42 | 1 | NOTE_E_5,
	WAVE_SAWTOOTH | VOLUME_37 | 1 | NOTE_E_5,
	WAVE_SAWTOOTH | VOLUME_33 | 1 | NOTE_E_5,
	WAVE_SAWTOOTH | VOLUME_28 | 1 | NOTE_E_5,
	WAVE_SAWTOOTH | VOLUME_25 | 1 | NOTE_E_5,
	WAVE_SAWTOOTH | VOLUME_22 | 1 | NOTE_E_5,
	WAVE_SAWTOOTH | VOLUME_19 | 1 | NOTE_E_5,
	WAVE_SAWTOOTH | VOLUME_16 | 1 | NOTE_E_5,
	WAVE_SAWTOOTH | VOLUME_14 | 1 | NOTE_E_5,
	WAVE_SAWTOOTH | VOLUME_12 | 1 | NOTE_E_5,
	WAVE_SAWTOOTH | VOLUME_10 | 1 | NOTE_E_5,
	WAVE_SAWTOOTH | VOLUME_09 | 1 | NOTE_E_5,
	WAVE_SAWTOOTH | VOLUME_07 | 1 | NOTE_E_5,
	WAVE_SAWTOOTH | VOLUME_06 | 1 | NOTE_E_5,
	WAVE_SAWTOOTH | VOLUME_05 | 1 | NOTE_E_5,
	WAVE_SAWTOOTH | VOLUME_04 | 1 | NOTE_E_5,
	WAVE_SAWTOOTH | VOLUME_03 | 1 | NOTE_E_5,
	WAVE_SAWTOOTH | VOLUME_02 | 2 | NOTE_E_5,
	WAVE_SAWTOOTH | VOLUME_01 | 1 | NOTE_E_5,
	WAVE_SAWTOOTH | VOLUME_00 | 3,

	WAVE_SAWTOOTH | VOLUME_63 | 1 | NOTE_C_6,
	WAVE_SAWTOOTH | VOLUME_55 | 1 | NOTE_C_6,
	WAVE_SAWTOOTH | VOLUME_48 | 1 | NOTE_C_6,
	WAVE_SAWTOOTH | VOLUME_42 | 1 | NOTE_C_6,
	WAVE_SAWTOOTH | VOLUME_37 | 1 | NOTE_C_6,
	WAVE_SAWTOOTH | VOLUME_33 | 1 | NOTE_C_6,
	WAVE_SAWTOOTH | VOLUME_28 | 1 | NOTE_C_6,
	WAVE_SAWTOOTH | VOLUME_25 | 1 | NOTE_C_6,
	WAVE_SAWTOOTH | VOLUME_22 | 1 | NOTE_C_6,
	WAVE_SAWTOOTH | VOLUME_19 | 1 | NOTE_C_6,
	WAVE_SAWTOOTH | VOLUME_16 | 1 | NOTE_C_6,
	WAVE_SAWTOOTH | VOLUME_14 | 1 | NOTE_C_6,
	WAVE_SAWTOOTH | VOLUME_12 | 1 | NOTE_C_6,
	WAVE_SAWTOOTH | VOLUME_10 | 1 | NOTE_C_6,
	WAVE_SAWTOOTH | VOLUME_09 | 1 | NOTE_C_6,
	WAVE_SAWTOOTH | VOLUME_07 | 1 | NOTE_C_6,
	WAVE_SAWTOOTH | VOLUME_06 | 1 | NOTE_C_6,
	WAVE_SAWTOOTH | VOLUME_05 | 1 | NOTE_C_6,
	WAVE_SAWTOOTH | VOLUME_04 | 1 | NOTE_C_6,
	WAVE_SAWTOOTH | VOLUME_03 | 1 | NOTE_C_6,
	WAVE_SAWTOOTH | VOLUME_02 | 2 | NOTE_C_6,
	WAVE_SAWTOOTH | VOLUME_01 | 1 | NOTE_C_6,
	STOP
};

const uint32_t jingle1[] =
{
	WAVE_SAWTOOTH | VOLUME_63 | 1 | ((uint32_t) NOTE_E_4 + DETUNE),
	WAVE_SAWTOOTH | VOLUME_55 | 1 | ((uint32_t) NOTE_E_4 + DETUNE),
	WAVE_SAWTOOTH | VOLUME_48 | 1 | ((uint32_t) NOTE_E_4 + DETUNE),
	WAVE_SAWTOOTH | VOLUME_42 | 1 | ((uint32_t) NOTE_E_4 + DETUNE),
	WAVE_SAWTOOTH | VOLUME_37 | 1 | ((uint32_t) NOTE_E_4 + DETUNE),
	WAVE_SAWTOOTH | VOLUME_33 | 1 | ((uint32_t) NOTE_E_4 + DETUNE),
	WAVE_SAWTOOTH | VOLUME_28 | 1 | ((uint32_t) NOTE_E_4 + DETUNE),
	WAVE_SAWTOOTH | VOLUME_25 | 1 | ((uint32_t) NOTE_E_4 + DETUNE),
	WAVE_SAWTOOTH | VOLUME_22 | 1 | ((uint32_t) NOTE_E_4 + DETUNE),
	WAVE_SAWTOOTH | VOLUME_19 | 1 | ((uint32_t) NOTE_E_4 + DETUNE),
	WAVE_SAWTOOTH | VOLUME_16 | 1 | ((uint32_t) NOTE_E_4 + DETUNE),
	WAVE_SAWTOOTH | VOLUME_14 | 1 | ((uint32_t) NOTE_E_4 + DETUNE),
	WAVE_SAWTOOTH | VOLUME_12 | 1 | ((uint32_t) NOTE_E_4 + DETUNE),
	WAVE_SAWTOOTH | VOLUME_10 | 1 | ((uint32_t) NOTE_E_4 + DETUNE),
	WAVE_SAWTOOTH | VOLUME_09 | 1 | ((uint32_t) NOTE_E_4 + DETUNE),
	WAVE_SAWTOOTH | VOLUME_07 | 1 | ((uint32_t) NOTE_E_4 + DETUNE),

	WAVE_SAWTOOTH | VOLUME_63 | 1 | ((uint32_t) NOTE_F_4 + DETUNE),
	WAVE_SAWTOOTH | VOLUME_55 | 1 | ((uint32_t) NOTE_F_4 + DETUNE),
	WAVE_SAWTOOTH | VOLUME_48 | 1 | ((uint32_t) NOTE_F_4 + DETUNE),
	WAVE_SAWTOOTH | VOLUME_42 | 1 | ((uint32_t) NOTE_F_4 + DETUNE),
	WAVE_SAWTOOTH | VOLUME_37 | 1 | ((uint32_t) NOTE_F_4 + DETUNE),
	WAVE_SAWTOOTH | VOLUME_33 | 1 | ((uint32_t) NOTE_F_4 + DETUNE),
	WAVE_SAWTOOTH | VOLUME_28 | 1 | ((uint32_t) NOTE_F_4 + DETUNE),
	WAVE_SAWTOOTH | VOLUME_25 | 1 | ((uint32_t) NOTE_F_4 + DETUNE),
	WAVE_SAWTOOTH | VOLUME_22 | 1 | ((uint32_t) NOTE_F_4 + DETUNE),
	WAVE_SAWTOOTH | VOLUME_19 | 1 | ((uint32_t) NOTE_F_4 + DETUNE),

	WAVE_SAWTOOTH | VOLUME_63 | 1 | ((uint32_t) NOTE_G_4 + DETUNE),
	WAVE_SAWTOOTH | VOLUME_55 | 1 | ((uint32_t) NOTE_G_4 + DETUNE),
	WAVE_SAWTOOTH | VOLUME_48 | 1 | ((uint32_t) NOTE_G_4 + DETUNE),
	WAVE_SAWTOOTH | VOLUME_42 | 1 | ((uint32_t) NOTE_G_4 + DETUNE),
	WAVE_SAWTOOTH | VOLUME_37 | 1 | ((uint32_t) NOTE_G_4 + DETUNE),
	WAVE_SAWTOOTH | VOLUME_33 | 1 | ((uint32_t) NOTE_G_4 + DETUNE),
	WAVE_SAWTOOTH | VOLUME_28 | 1 | ((uint32_t) NOTE_G_4 + DETUNE),
	WAVE_SAWTOOTH | VOLUME_25 | 1 | ((uint32_t) NOTE_G_4 + DETUNE),
	WAVE_SAWTOOTH | VOLUME_22 | 1 | ((uint32_t) NOTE_G_4 + DETUNE),
	WAVE_SAWTOOTH | VOLUME_19 | 1 | ((uint32_t) NOTE_G_4 + DETUNE),
	WAVE_SAWTOOTH | VOLUME_16 | 1 | ((uint32_t) NOTE_G_4 + DETUNE),
	WAVE_SAWTOOTH | VOLUME_14 | 1 | ((uint32_t) NOTE_G_4 + DETUNE),
	WAVE_SAWTOOTH | VOLUME_12 | 1 | ((uint32_t) NOTE_G_4 + DETUNE),
	WAVE_SAWTOOTH | VOLUME_10 | 1 | ((uint32_t) NOTE_G_4 + DETUNE),
	WAVE_SAWTOOTH | VOLUME_09 | 1 | ((uint32_t) NOTE_G_4 + DETUNE),
	WAVE_SAWTOOTH | VOLUME_07 | 1 | ((uint32_t) NOTE_G_4 + DETUNE),
	WAVE_SAWTOOTH | VOLUME_06 | 1 | ((uint32_t) NOTE_G_4 + DETUNE),
	WAVE_SAWTOOTH | VOLUME_05 | 1 | ((uint32_t) NOTE_G_4 + DETUNE),
	WAVE_SAWTOOTH | VOLUME_04 | 1 | ((uint32_t) NOTE_G_4 + DETUNE),
	WAVE_SAWTOOTH | VOLUME_03 | 1 | ((uint32_t) NOTE_G_4 + DETUNE),
	WAVE_SAWTOOTH | VOLUME_02 | 2 | ((uint32_t) NOTE_G_4 + DETUNE),
	WAVE_SAWTOOTH | VOLUME_01 | 1 | ((uint32_t) NOTE_G_4 + DETUNE),
	WAVE_SAWTOOTH | VOLUME_00 | 3,

	WAVE_SAWTOOTH | VOLUME_63 | 1 | ((uint32_t) NOTE_C_5 + DETUNE),
	WAVE_SAWTOOTH | VOLUME_55 | 1 | ((uint32_t) NOTE_C_5 + DETUNE),
	WAVE_SAWTOOTH | VOLUME_48 | 1 | ((uint32_t) NOTE_C_5 + DETUNE),
	WAVE_SAWTOOTH | VOLUME_42 | 1 | ((uint32_t) NOTE_C_5 + DETUNE),
	WAVE_SAWTOOTH | VOLUME_37 | 1 | ((uint32_t) NOTE_C_5 + DETUNE),
	WAVE_SAWTOOTH | VOLUME_33 | 1 | ((uint32_t) NOTE_C_5 + DETUNE),
	WAVE_SAWTOOTH | VOLUME_28 | 1 | ((uint32_t) NOTE_C_5 + DETUNE),
	WAVE_SAWTOOTH | VOLUME_25 | 1 | ((uint32_t) NOTE_C_5 + DETUNE),
	WAVE_SAWTOOTH | VOLUME_22 | 1 | ((uint32_t) NOTE_C_5 + DETUNE),
	WAVE_SAWTOOTH | VOLUME_19 | 1 | ((uint32_t) NOTE_C_5 + DETUNE),
	WAVE_SAWTOOTH | VOLUME_16 | 1 | ((uint32_t) NOTE_C_5 + DETUNE),
	WAVE_SAWTOOTH | VOLUME_14 | 1 | ((uint32_t) NOTE_C_5 + DETUNE),
	WAVE_SAWTOOTH | VOLUME_12 | 1 | ((uint32_t) NOTE_C_5 + DETUNE),
	WAVE_SAWTOOTH | VOLUME_10 | 1 | ((uint32_t) NOTE_C_5 + DETUNE),
	WAVE_SAWTOOTH | VOLUME_09 | 1 | ((uint32_t) NOTE_C_5 + DETUNE),
	WAVE_SAWTOOTH | VOLUME_07 | 1 | ((uint32_t) NOTE_C_5 + DETUNE),

	WAVE_SAWTOOTH | VOLUME_63 | 1 | ((uint32_t) NOTE_D_5 + DETUNE),
	WAVE_SAWTOOTH | VOLUME_55 | 1 | ((uint32_t) NOTE_D_5 + DETUNE),
	WAVE_SAWTOOTH | VOLUME_48 | 1 | ((uint32_t) NOTE_D_5 + DETUNE),
	WAVE_SAWTOOTH | VOLUME_42 | 1 | ((uint32_t) NOTE_D_5 + DETUNE),
	WAVE_SAWTOOTH | VOLUME_37 | 1 | ((uint32_t) NOTE_D_5 + DETUNE),
	WAVE_SAWTOOTH | VOLUME_33 | 1 | ((uint32_t) NOTE_D_5 + DETUNE),
	WAVE_SAWTOOTH | VOLUME_28 | 1 | ((uint32_t) NOTE_D_5 + DETUNE),
	WAVE_SAWTOOTH | VOLUME_25 | 1 | ((uint32_t) NOTE_D_5 + DETUNE),
	WAVE_SAWTOOTH | VOLUME_22 | 1 | ((uint32_t) NOTE_D_5 + DETUNE),
	WAVE_SAWTOOTH | VOLUME_19 | 1 | ((uint32_t) NOTE_D_5 + DETUNE),

	WAVE_SAWTOOTH | VOLUME_63 | 1 | ((uint32_t) NOTE_E_5 + DETUNE),
	WAVE_SAWTOOTH | VOLUME_55 | 1 | ((uint32_t) NOTE_E_5 + DETUNE),
	WAVE_SAWTOOTH | VOLUME_48 | 1 | ((uint32_t) NOTE_E_5 + DETUNE),
	WAVE_SAWTOOTH | VOLUME_42 | 1 | ((uint32_t) NOTE_E_5 + DETUNE),
	WAVE_SAWTOOTH | VOLUME_37 | 1 | ((uint32_t) NOTE_E_5 + DETUNE),
	WAVE_SAWTOOTH | VOLUME_33 | 1 | ((uint32_t) NOTE_E_5 + DETUNE),
	WAVE_SAWTOOTH | VOLUME_28 | 1 | ((uint32_t) NOTE_E_5 + DETUNE),
	WAVE_SAWTOOTH | VOLUME_25 | 1 | ((uint32_t) NOTE_E_5 + DETUNE),
	WAVE_SAWTOOTH | VOLUME_22 | 1 | ((uint32_t) NOTE_E_5 + DETUNE),
	WAVE_SAWTOOTH | VOLUME_19 | 1 | ((uint32_t) NOTE_E_5 + DETUNE),
	WAVE_SAWTOOTH | VOLUME_16 | 1 | ((uint32_t) NOTE_E_5 + DETUNE),
	WAVE_SAWTOOTH | VOLUME_14 | 1 | ((uint32_t) NOTE_E_5 + DETUNE),
	WAVE_SAWTOOTH | VOLUME_12 | 1 | ((uint32_t) NOTE_E_5 + DETUNE),
	WAVE_SAWTOOTH | VOLUME_10 | 1 | ((uint32_t) NOTE_E_5 + DETUNE),
	WAVE_SAWTOOTH | VOLUME_09 | 1 | ((uint32_t) NOTE_E_5 + DETUNE),
	WAVE_SAWTOOTH | VOLUME_07 | 1 | ((uint32_t) NOTE_E_5 + DETUNE),
	WAVE_SAWTOOTH | VOLUME_06 | 1 | ((uint32_t) NOTE_E_5 + DETUNE),
	WAVE_SAWTOOTH | VOLUME_05 | 1 | ((uint32_t) NOTE_E_5 + DETUNE),
	WAVE_SAWTOOTH | VOLUME_04 | 1 | ((uint32_t) NOTE_E_5 + DETUNE),
	WAVE_SAWTOOTH | VOLUME_03 | 1 | ((uint32_t) NOTE_E_5 + DETUNE),
	WAVE_SAWTOOTH | VOLUME_02 | 2 | ((uint32_t) NOTE_E_5 + DETUNE),
	WAVE_SAWTOOTH | VOLUME_01 | 1 | ((uint32_t) NOTE_E_5 + DETUNE),
	WAVE_SAWTOOTH | VOLUME_00 | 3,

	WAVE_SAWTOOTH | VOLUME_63 | 1 | ((uint32_t) NOTE_G_5 + DETUNE),
	WAVE_SAWTOOTH | VOLUME_55 | 1 | ((uint32_t) NOTE_G_5 + DETUNE),
	WAVE_SAWTOOTH | VOLUME_48 | 1 | ((uint32_t) NOTE_G_5 + DETUNE),
	WAVE_SAWTOOTH | VOLUME_42 | 1 | ((uint32_t) NOTE_G_5 + DETUNE),
	WAVE_SAWTOOTH | VOLUME_37 | 1 | ((uint32_t) NOTE_G_5 + DETUNE),
	WAVE_SAWTOOTH | VOLUME_33 | 1 | ((uint32_t) NOTE_G_5 + DETUNE),
	WAVE_SAWTOOTH | VOLUME_28 | 1 | ((uint32_t) NOTE_G_5 + DETUNE),
	WAVE_SAWTOOTH | VOLUME_25 | 1 | ((uint32_t) NOTE_G_5 + DETUNE),
	WAVE_SAWTOOTH | VOLUME_22 | 1 | ((uint32_t) NOTE_G_5 + DETUNE),
	WAVE_SAWTOOTH | VOLUME_19 | 1 | ((uint32_t) NOTE_G_5 + DETUNE),
	WAVE_SAWTOOTH | VOLUME_16 | 1 | ((uint32_t) NOTE_G_5 + DETUNE),
	WAVE_SAWTOOTH | VOLUME_14 | 1 | ((uint32_t) NOTE_G_5 + DETUNE),
	WAVE_SAWTOOTH | VOLUME_12 | 1 | ((uint32_t) NOTE_G_5 + DETUNE),
	WAVE_SAWTOOTH | VOLUME_10 | 1 | ((uint32_t) NOTE_G_5 + DETUNE),
	WAVE_SAWTOOTH | VOLUME_09 | 1 | ((uint32_t) NOTE_G_5 + DETUNE),
	WAVE_SAWTOOTH | VOLUME_07 | 1 | ((uint32_t) NOTE_G_5 + DETUNE),

	WAVE_SAWTOOTH | VOLUME_63 | 1 | ((uint32_t) NOTE_C_6 + DETUNE),
	WAVE_SAWTOOTH | VOLUME_55 | 1 | ((uint32_t) NOTE_C_6 + DETUNE),
	WAVE_SAWTOOTH | VOLUME_48 | 1 | ((uint32_t) NOTE_C_6 + DETUNE),
	WAVE_SAWTOOTH | VOLUME_42 | 1 | ((uint32_t) NOTE_C_6 + DETUNE),
	WAVE_SAWTOOTH | VOLUME_37 | 1 | ((uint32_t) NOTE_C_6 + DETUNE),
	WAVE_SAWTOOTH | VOLUME_33 | 1 | ((uint32_t) NOTE_C_6 + DETUNE),
	WAVE_SAWTOOTH | VOLUME_28 | 1 | ((uint32_t) NOTE_C_6 + DETUNE),
	WAVE_SAWTOOTH | VOLUME_25 | 1 | ((uint32_t) NOTE_C_6 + DETUNE),
	WAVE_SAWTOOTH | VOLUME_22 | 1 | ((uint32_t) NOTE_C_6 + DETUNE),
	WAVE_SAWTOOTH | VOLUME_19 | 1 | ((uint32_t) NOTE_C_6 + DETUNE),

	WAVE_SAWTOOTH | VOLUME_63 | 1 | ((uint32_t) NOTE_G_5 + DETUNE),
	WAVE_SAWTOOTH | VOLUME_55 | 1 | ((uint32_t) NOTE_G_5 + DETUNE),
	WAVE_SAWTOOTH | VOLUME_48 | 1 | ((uint32_t) NOTE_G_5 + DETUNE),
	WAVE_SAWTOOTH | VOLUME_42 | 1 | ((uint32_t) NOTE_G_5 + DETUNE),
	WAVE_SAWTOOTH | VOLUME_37 | 1 | ((uint32_t) NOTE_G_5 + DETUNE),
	WAVE_SAWTOOTH | VOLUME_33 | 1 | ((uint32_t) NOTE_G_5 + DETUNE),
	WAVE_SAWTOOTH | VOLUME_28 | 1 | ((uint32_t) NOTE_G_5 + DETUNE),
	WAVE_SAWTOOTH | VOLUME_25 | 1 | ((uint32_t) NOTE_G_5 + DETUNE),
	WAVE_SAWTOOTH | VOLUME_22 | 1 | ((uint32_t) NOTE_G_5 + DETUNE),
	WAVE_SAWTOOTH | VOLUME_19 | 1 | ((uint32_t) NOTE_G_5 + DETUNE),
	WAVE_SAWTOOTH | VOLUME_16 | 1 | ((uint32_t) NOTE_G_5 + DETUNE),
	WAVE_SAWTOOTH | VOLUME_14 | 1 | ((uint32_t) NOTE_G_5 + DETUNE),
	WAVE_SAWTOOTH | VOLUME_12 | 1 | ((uint32_t) NOTE_G_5 + DETUNE),
	WAVE_SAWTOOTH | VOLUME_10 | 1 | ((uint32_t) NOTE_G_5 + DETUNE),
	WAVE_SAWTOOTH | VOLUME_09 | 1 | ((uint32_t) NOTE_G_5 + DETUNE),
	WAVE_SAWTOOTH | VOLUME_07 | 1 | ((uint32_t) NOTE_G_5 + DETUNE),

	WAVE_SAWTOOTH | VOLUME_63 | 1 | ((uint32_t) NOTE_F_5 + DETUNE),
	WAVE_SAWTOOTH | VOLUME_55 | 1 | ((uint32_t) NOTE_F_5 + DETUNE),
	WAVE_SAWTOOTH | VOLUME_48 | 1 | ((uint32_t) NOTE_F_5 + DETUNE),
	WAVE_SAWTOOTH | VOLUME_42 | 1 | ((uint32_t) NOTE_F_5 + DETUNE),
	WAVE_SAWTOOTH | VOLUME_37 | 1 | ((uint32_t) NOTE_F_5 + DETUNE),
	WAVE_SAWTOOTH | VOLUME_33 | 1 | ((uint32_t) NOTE_F_5 + DETUNE),
	WAVE_SAWTOOTH | VOLUME_28 | 1 | ((uint32_t) NOTE_F_5 + DETUNE),
	WAVE_SAWTOOTH | VOLUME_25 | 1 | ((uint32_t) NOTE_F_5 + DETUNE),
	WAVE_SAWTOOTH | VOLUME_22 | 1 | ((uint32_t) NOTE_F_5 + DETUNE),
	WAVE_SAWTOOTH | VOLUME_19 | 1 | ((uint32_t) NOTE_F_5 + DETUNE),

	WAVE_SAWTOOTH | VOLUME_63 | 1 | ((uint32_t) NOTE_E_5 + DETUNE),
	WAVE_SAWTOOTH | VOLUME_55 | 1 | ((uint32_t) NOTE_E_5 + DETUNE),
	WAVE_SAWTOOTH | VOLUME_48 | 1 | ((uint32_t) NOTE_E_5 + DETUNE),
	WAVE_SAWTOOTH | VOLUME_42 | 1 | ((uint32_t) NOTE_E_5 + DETUNE),
	WAVE_SAWTOOTH | VOLUME_37 | 1 | ((uint32_t) NOTE_E_5 + DETUNE),
	WAVE_SAWTOOTH | VOLUME_33 | 1 | ((uint32_t) NOTE_E_5 + DETUNE),
	WAVE_SAWTOOTH | VOLUME_28 | 1 | ((uint32_t) NOTE_E_5 + DETUNE),
	WAVE_SAWTOOTH | VOLUME_25 | 1 | ((uint32_t) NOTE_E_5 + DETUNE),
	WAVE_SAWTOOTH | VOLUME_22 | 1 | ((uint32_t) NOTE_E_5 + DETUNE),
	WAVE_SAWTOOTH | VOLUME_19 | 1 | ((uint32_t) NOTE_E_5 + DETUNE),
	WAVE_SAWTOOTH | VOLUME_16 | 1 | ((uint32_t) NOTE_E_5 + DETUNE),
	WAVE_SAWTOOTH | VOLUME_14 | 1 | ((uint32_t) NOTE_E_5 + DETUNE),
	WAVE_SAWTOOTH | VOLUME_12 | 1 | ((uint32_t) NOTE_E_5 + DETUNE),
	WAVE_SAWTOOTH | VOLUME_10 | 1 | ((uint32_t) NOTE_E_5 + DETUNE),
	WAVE_SAWTOOTH | VOLUME_09 | 1 | ((uint32_t) NOTE_E_5 + DETUNE),
	WAVE_SAWTOOTH | VOLUME_07 | 1 | ((uint32_t) NOTE_E_5 + DETUNE),
	WAVE_SAWTOOTH | VOLUME_06 | 1 | ((uint32_t) NOTE_E_5 + DETUNE),
	WAVE_SAWTOOTH | VOLUME_05 | 1 | ((uint32_t) NOTE_E_5 + DETUNE),
	WAVE_SAWTOOTH | VOLUME_04 | 1 | ((uint32_t) NOTE_E_5 + DETUNE),
	WAVE_SAWTOOTH | VOLUME_03 | 1 | ((uint32_t) NOTE_E_5 + DETUNE),
	WAVE_SAWTOOTH | VOLUME_02 | 2 | ((uint32_t) NOTE_E_5 + DETUNE),
	WAVE_SAWTOOTH | VOLUME_01 | 1 | ((uint32_t) NOTE_E_5 + DETUNE),
	WAVE_SAWTOOTH | VOLUME_00 | 3,

	WAVE_SAWTOOTH | VOLUME_63 | 1 | ((uint32_t) NOTE_D_5 + DETUNE),
	WAVE_SAWTOOTH | VOLUME_55 | 1 | ((uint32_t) NOTE_D_5 + DETUNE),
	WAVE_SAWTOOTH | VOLUME_48 | 1 | ((uint32_t) NOTE_D_5 + DETUNE),
	WAVE_SAWTOOTH | VOLUME_42 | 1 | ((uint32_t) NOTE_D_5 + DETUNE),
	WAVE_SAWTOOTH | VOLUME_37 | 1 | ((uint32_t) NOTE_D_5 + DETUNE),
	WAVE_SAWTOOTH | VOLUME_33 | 1 | ((uint32_t) NOTE_D_5 + DETUNE),
	WAVE_SAWTOOTH | VOLUME_28 | 1 | ((uint32_t) NOTE_D_5 + DETUNE),
	WAVE_SAWTOOTH | VOLUME_25 | 1 | ((uint32_t) NOTE_D_5 + DETUNE),
	WAVE_SAWTOOTH | VOLUME_22 | 1 | ((uint32_t) NOTE_D_5 + DETUNE),
	WAVE_SAWTOOTH | VOLUME_19 | 1 | ((uint32_t) NOTE_D_5 + DETUNE),
	WAVE_SAWTOOTH | VOLUME_16 | 1 | ((uint32_t) NOTE_D_5 + DETUNE),
	WAVE_SAWTOOTH | VOLUME_14 | 1 | ((uint32_t) NOTE_D_5 + DETUNE),
	WAVE_SAWTOOTH | VOLUME_12 | 1 | ((uint32_t) NOTE_D_5 + DETUNE),
	WAVE_SAWTOOTH | VOLUME_10 | 1 | ((uint32_t) NOTE_D_5 + DETUNE),
	WAVE_SAWTOOTH | VOLUME_09 | 1 | ((uint32_t) NOTE_D_5 + DETUNE),
	WAVE_SAWTOOTH | VOLUME_07 | 1 | ((uint32_t) NOTE_D_5 + DETUNE),
	WAVE_SAWTOOTH | VOLUME_06 | 1 | ((uint32_t) NOTE_D_5 + DETUNE),
	WAVE_SAWTOOTH | VOLUME_05 | 1 | ((uint32_t) NOTE_D_5 + DETUNE),
	WAVE_SAWTOOTH | VOLUME_04 | 1 | ((uint32_t) NOTE_D_5 + DETUNE),
	WAVE_SAWTOOTH | VOLUME_03 | 1 | ((uint32_t) NOTE_D_5 + DETUNE),
	WAVE_SAWTOOTH | VOLUME_02 | 2 | ((uint32_t) NOTE_D_5 + DETUNE),
	WAVE_SAWTOOTH | VOLUME_01 | 1 | ((uint32_t) NOTE_D_5 + DETUNE),
	WAVE_SAWTOOTH | VOLUME_00 | 3,

	WAVE_SAWTOOTH | VOLUME_63 | 1 | ((uint32_t) NOTE_E_4 + DETUNE),
	WAVE_SAWTOOTH | VOLUME_55 | 1 | ((uint32_t) NOTE_E_4 + DETUNE),
	WAVE_SAWTOOTH | VOLUME_48 | 1 | ((uint32_t) NOTE_E_4 + DETUNE),
	WAVE_SAWTOOTH | VOLUME_42 | 1 | ((uint32_t) NOTE_E_4 + DETUNE),
	WAVE_SAWTOOTH | VOLUME_37 | 1 | ((uint32_t) NOTE_E_4 + DETUNE),
	WAVE_SAWTOOTH | VOLUME_33 | 1 | ((uint32_t) NOTE_E_4 + DETUNE),
	WAVE_SAWTOOTH | VOLUME_28 | 1 | ((uint32_t) NOTE_E_4 + DETUNE),
	WAVE_SAWTOOTH | VOLUME_25 | 1 | ((uint32_t) NOTE_E_4 + DETUNE),
	WAVE_SAWTOOTH | VOLUME_22 | 1 | ((uint32_t) NOTE_E_4 + DETUNE),
	WAVE_SAWTOOTH | VOLUME_19 | 1 | ((uint32_t) NOTE_E_4 + DETUNE),
	WAVE_SAWTOOTH | VOLUME_16 | 1 | ((uint32_t) NOTE_E_4 + DETUNE),
	WAVE_SAWTOOTH | VOLUME_14 | 1 | ((uint32_t) NOTE_E_4 + DETUNE),
	WAVE_SAWTOOTH | VOLUME_12 | 1 | ((uint32_t) NOTE_E_4 + DETUNE),
	WAVE_SAWTOOTH | VOLUME_10 | 1 | ((uint32_t) NOTE_E_4 + DETUNE),
	WAVE_SAWTOOTH | VOLUME_09 | 1 | ((uint32_t) NOTE_E_4 + DETUNE),
	WAVE_SAWTOOTH | VOLUME_07 | 1 | ((uint32_t) NOTE_E_4 + DETUNE),

	WAVE_SAWTOOTH | VOLUME_63 | 1 | ((uint32_t) NOTE_F_4 + DETUNE),
	WAVE_SAWTOOTH | VOLUME_55 | 1 | ((uint32_t) NOTE_F_4 + DETUNE),
	WAVE_SAWTOOTH | VOLUME_48 | 1 | ((uint32_t) NOTE_F_4 + DETUNE),
	WAVE_SAWTOOTH | VOLUME_42 | 1 | ((uint32_t) NOTE_F_4 + DETUNE),
	WAVE_SAWTOOTH | VOLUME_37 | 1 | ((uint32_t) NOTE_F_4 + DETUNE),
	WAVE_SAWTOOTH | VOLUME_33 | 1 | ((uint32_t) NOTE_F_4 + DETUNE),
	WAVE_SAWTOOTH | VOLUME_28 | 1 | ((uint32_t) NOTE_F_4 + DETUNE),
	WAVE_SAWTOOTH | VOLUME_25 | 1 | ((uint32_t) NOTE_F_4 + DETUNE),
	WAVE_SAWTOOTH | VOLUME_22 | 1 | ((uint32_t) NOTE_F_4 + DETUNE),
	WAVE_SAWTOOTH | VOLUME_19 | 1 | ((uint32_t) NOTE_F_4 + DETUNE),

	WAVE_SAWTOOTH | VOLUME_63 | 1 | ((uint32_t) NOTE_G_4 + DETUNE),
	WAVE_SAWTOOTH | VOLUME_55 | 1 | ((uint32_t) NOTE_G_4 + DETUNE),
	WAVE_SAWTOOTH | VOLUME_48 | 1 | ((uint32_t) NOTE_G_4 + DETUNE),
	WAVE_SAWTOOTH | VOLUME_42 | 1 | ((uint32_t) NOTE_G_4 + DETUNE),
	WAVE_SAWTOOTH | VOLUME_37 | 1 | ((uint32_t) NOTE_G_4 + DETUNE),
	WAVE_SAWTOOTH | VOLUME_33 | 1 | ((uint32_t) NOTE_G_4 + DETUNE),
	WAVE_SAWTOOTH | VOLUME_28 | 1 | ((uint32_t) NOTE_G_4 + DETUNE),
	WAVE_SAWTOOTH | VOLUME_25 | 1 | ((uint32_t) NOTE_G_4 + DETUNE),
	WAVE_SAWTOOTH | VOLUME_22 | 1 | ((uint32_t) NOTE_G_4 + DETUNE),
	WAVE_SAWTOOTH | VOLUME_19 | 1 | ((uint32_t) NOTE_G_4 + DETUNE),
	WAVE_SAWTOOTH | VOLUME_16 | 1 | ((uint32_t) NOTE_G_4 + DETUNE),
	WAVE_SAWTOOTH | VOLUME_14 | 1 | ((uint32_t) NOTE_G_4 + DETUNE),
	WAVE_SAWTOOTH | VOLUME_12 | 1 | ((uint32_t) NOTE_G_4 + DETUNE),
	WAVE_SAWTOOTH | VOLUME_10 | 1 | ((uint32_t) NOTE_G_4 + DETUNE),
	WAVE_SAWTOOTH | VOLUME_09 | 1 | ((uint32_t) NOTE_G_4 + DETUNE),
	WAVE_SAWTOOTH | VOLUME_07 | 1 | ((uint32_t) NOTE_G_4 + DETUNE),
	WAVE_SAWTOOTH | VOLUME_06 | 1 | ((uint32_t) NOTE_G_4 + DETUNE),
	WAVE_SAWTOOTH | VOLUME_05 | 1 | ((uint32_t) NOTE_G_4 + DETUNE),
	WAVE_SAWTOOTH | VOLUME_04 | 1 | ((uint32_t) NOTE_G_4 + DETUNE),
	WAVE_SAWTOOTH | VOLUME_03 | 1 | ((uint32_t) NOTE_G_4 + DETUNE),
	WAVE_SAWTOOTH | VOLUME_02 | 2 | ((uint32_t) NOTE_G_4 + DETUNE),
	WAVE_SAWTOOTH | VOLUME_01 | 1 | ((uint32_t) NOTE_G_4 + DETUNE),
	WAVE_SAWTOOTH | VOLUME_00 | 3,

	WAVE_SAWTOOTH | VOLUME_63 | 1 | ((uint32_t) NOTE_C_5 + DETUNE),
	WAVE_SAWTOOTH | VOLUME_55 | 1 | ((uint32_t) NOTE_C_5 + DETUNE),
	WAVE_SAWTOOTH | VOLUME_48 | 1 | ((uint32_t) NOTE_C_5 + DETUNE),
	WAVE_SAWTOOTH | VOLUME_42 | 1 | ((uint32_t) NOTE_C_5 + DETUNE),
	WAVE_SAWTOOTH | VOLUME_37 | 1 | ((uint32_t) NOTE_C_5 + DETUNE),
	WAVE_SAWTOOTH | VOLUME_33 | 1 | ((uint32_t) NOTE_C_5 + DETUNE),
	WAVE_SAWTOOTH | VOLUME_28 | 1 | ((uint32_t) NOTE_C_5 + DETUNE),
	WAVE_SAWTOOTH | VOLUME_25 | 1 | ((uint32_t) NOTE_C_5 + DETUNE),
	WAVE_SAWTOOTH | VOLUME_22 | 1 | ((uint32_t) NOTE_C_5 + DETUNE),
	WAVE_SAWTOOTH | VOLUME_19 | 1 | ((uint32_t) NOTE_C_5 + DETUNE),
	WAVE_SAWTOOTH | VOLUME_16 | 1 | ((uint32_t) NOTE_C_5 + DETUNE),
	WAVE_SAWTOOTH | VOLUME_14 | 1 | ((uint32_t) NOTE_C_5 + DETUNE),
	WAVE_SAWTOOTH | VOLUME_12 | 1 | ((uint32_t) NOTE_C_5 + DETUNE),
	WAVE_SAWTOOTH | VOLUME_10 | 1 | ((uint32_t) NOTE_C_5 + DETUNE),
	WAVE_SAWTOOTH | VOLUME_09 | 1 | ((uint32_t) NOTE_C_5 + DETUNE),
	WAVE_SAWTOOTH | VOLUME_07 | 1 | ((uint32_t) NOTE_C_5 + DETUNE),

	WAVE_SAWTOOTH | VOLUME_63 | 1 | ((uint32_t) NOTE_D_5 + DETUNE),
	WAVE_SAWTOOTH | VOLUME_55 | 1 | ((uint32_t) NOTE_D_5 + DETUNE),
	WAVE_SAWTOOTH | VOLUME_48 | 1 | ((uint32_t) NOTE_D_5 + DETUNE),
	WAVE_SAWTOOTH | VOLUME_42 | 1 | ((uint32_t) NOTE_D_5 + DETUNE),
	WAVE_SAWTOOTH | VOLUME_37 | 1 | ((uint32_t) NOTE_D_5 + DETUNE),
	WAVE_SAWTOOTH | VOLUME_33 | 1 | ((uint32_t) NOTE_D_5 + DETUNE),
	WAVE_SAWTOOTH | VOLUME_28 | 1 | ((uint32_t) NOTE_D_5 + DETUNE),
	WAVE_SAWTOOTH | VOLUME_25 | 1 | ((uint32_t) NOTE_D_5 + DETUNE),
	WAVE_SAWTOOTH | VOLUME_22 | 1 | ((uint32_t) NOTE_D_5 + DETUNE),
	WAVE_SAWTOOTH | VOLUME_19 | 1 | ((uint32_t) NOTE_D_5 + DETUNE),

	WAVE_SAWTOOTH | VOLUME_63 | 1 | ((uint32_t) NOTE_E_5 + DETUNE),
	WAVE_SAWTOOTH | VOLUME_55 | 1 | ((uint32_t) NOTE_E_5 + DETUNE),
	WAVE_SAWTOOTH | VOLUME_48 | 1 | ((uint32_t) NOTE_E_5 + DETUNE),
	WAVE_SAWTOOTH | VOLUME_42 | 1 | ((uint32_t) NOTE_E_5 + DETUNE),
	WAVE_SAWTOOTH | VOLUME_37 | 1 | ((uint32_t) NOTE_E_5 + DETUNE),
	WAVE_SAWTOOTH | VOLUME_33 | 1 | ((uint32_t) NOTE_E_5 + DETUNE),
	WAVE_SAWTOOTH | VOLUME_28 | 1 | ((uint32_t) NOTE_E_5 + DETUNE),
	WAVE_SAWTOOTH | VOLUME_25 | 1 | ((uint32_t) NOTE_E_5 + DETUNE),
	WAVE_SAWTOOTH | VOLUME_22 | 1 | ((uint32_t) NOTE_E_5 + DETUNE),
	WAVE_SAWTOOTH | VOLUME_19 | 1 | ((uint32_t) NOTE_E_5 + DETUNE),
	WAVE_SAWTOOTH | VOLUME_16 | 1 | ((uint32_t) NOTE_E_5 + DETUNE),
	WAVE_SAWTOOTH | VOLUME_14 | 1 | ((uint32_t) NOTE_E_5 + DETUNE),
	WAVE_SAWTOOTH | VOLUME_12 | 1 | ((uint32_t) NOTE_E_5 + DETUNE),
	WAVE_SAWTOOTH | VOLUME_10 | 1 | ((uint32_t) NOTE_E_5 + DETUNE),
	WAVE_SAWTOOTH | VOLUME_09 | 1 | ((uint32_t) NOTE_E_5 + DETUNE),
	WAVE_SAWTOOTH | VOLUME_07 | 1 | ((uint32_t) NOTE_E_5 + DETUNE),
	WAVE_SAWTOOTH | VOLUME_06 | 1 | ((uint32_t) NOTE_E_5 + DETUNE),
	WAVE_SAWTOOTH | VOLUME_05 | 1 | ((uint32_t) NOTE_E_5 + DETUNE),
	WAVE_SAWTOOTH | VOLUME_04 | 1 | ((uint32_t) NOTE_E_5 + DETUNE),
	WAVE_SAWTOOTH | VOLUME_03 | 1 | ((uint32_t) NOTE_E_5 + DETUNE),
	WAVE_SAWTOOTH | VOLUME_02 | 2 | ((uint32_t) NOTE_E_5 + DETUNE),
	WAVE_SAWTOOTH | VOLUME_01 | 1 | ((uint32_t) NOTE_E_5 + DETUNE),
	WAVE_SAWTOOTH | VOLUME_00 | 3,

	WAVE_SAWTOOTH | VOLUME_63 | 1 | ((uint32_t) NOTE_G_5 + DETUNE),
	WAVE_SAWTOOTH | VOLUME_55 | 1 | ((uint32_t) NOTE_G_5 + DETUNE),
	WAVE_SAWTOOTH | VOLUME_48 | 1 | ((uint32_t) NOTE_G_5 + DETUNE),
	WAVE_SAWTOOTH | VOLUME_42 | 1 | ((uint32_t) NOTE_G_5 + DETUNE),
	WAVE_SAWTOOTH | VOLUME_37 | 1 | ((uint32_t) NOTE_G_5 + DETUNE),
	WAVE_SAWTOOTH | VOLUME_33 | 1 | ((uint32_t) NOTE_G_5 + DETUNE),
	WAVE_SAWTOOTH | VOLUME_28 | 1 | ((uint32_t) NOTE_G_5 + DETUNE),
	WAVE_SAWTOOTH | VOLUME_25 | 1 | ((uint32_t) NOTE_G_5 + DETUNE),
	WAVE_SAWTOOTH | VOLUME_22 | 1 | ((uint32_t) NOTE_G_5 + DETUNE),
	WAVE_SAWTOOTH | VOLUME_19 | 1 | ((uint32_t) NOTE_G_5 + DETUNE),
	WAVE_SAWTOOTH | VOLUME_16 | 1 | ((uint32_t) NOTE_G_5 + DETUNE),
	WAVE_SAWTOOTH | VOLUME_14 | 1 | ((uint32_t) NOTE_G_5 + DETUNE),
	WAVE_SAWTOOTH | VOLUME_12 | 1 | ((uint32_t) NOTE_G_5 + DETUNE),
	WAVE_SAWTOOTH | VOLUME_10 | 1 | ((uint32_t) NOTE_G_5 + DETUNE),
	WAVE_SAWTOOTH | VOLUME_09 | 1 | ((uint32_t) NOTE_G_5 + DETUNE),
	WAVE_SAWTOOTH | VOLUME_07 | 1 | ((uint32_t) NOTE_G_5 + DETUNE),

	WAVE_SAWTOOTH | VOLUME_63 | 1 | ((uint32_t) NOTE_C_6 + DETUNE),
	WAVE_SAWTOOTH | VOLUME_55 | 1 | ((uint32_t) NOTE_C_6 + DETUNE),
	WAVE_SAWTOOTH | VOLUME_48 | 1 | ((uint32_t) NOTE_C_6 + DETUNE),
	WAVE_SAWTOOTH | VOLUME_42 | 1 | ((uint32_t) NOTE_C_6 + DETUNE),
	WAVE_SAWTOOTH | VOLUME_37 | 1 | ((uint32_t) NOTE_C_6 + DETUNE),
	WAVE_SAWTOOTH | VOLUME_33 | 1 | ((uint32_t) NOTE_C_6 + DETUNE),
	WAVE_SAWTOOTH | VOLUME_28 | 1 | ((uint32_t) NOTE_C_6 + DETUNE),
	WAVE_SAWTOOTH | VOLUME_25 | 1 | ((uint32_t) NOTE_C_6 + DETUNE),
	WAVE_SAWTOOTH | VOLUME_22 | 1 | ((uint32_t) NOTE_C_6 + DETUNE),
	WAVE_SAWTOOTH | VOLUME_19 | 1 | ((uint32_t) NOTE_C_6 + DETUNE),

	WAVE_SAWTOOTH | VOLUME_63 | 1 | ((uint32_t) NOTE_G_5 + DETUNE),
	WAVE_SAWTOOTH | VOLUME_55 | 1 | ((uint32_t) NOTE_G_5 + DETUNE),
	WAVE_SAWTOOTH | VOLUME_48 | 1 | ((uint32_t) NOTE_G_5 + DETUNE),
	WAVE_SAWTOOTH | VOLUME_42 | 1 | ((uint32_t) NOTE_G_5 + DETUNE),
	WAVE_SAWTOOTH | VOLUME_37 | 1 | ((uint32_t) NOTE_G_5 + DETUNE),
	WAVE_SAWTOOTH | VOLUME_33 | 1 | ((uint32_t) NOTE_G_5 + DETUNE),
	WAVE_SAWTOOTH | VOLUME_28 | 1 | ((uint32_t) NOTE_G_5 + DETUNE),
	WAVE_SAWTOOTH | VOLUME_25 | 1 | ((uint32_t) NOTE_G_5 + DETUNE),
	WAVE_SAWTOOTH | VOLUME_22 | 1 | ((uint32_t) NOTE_G_5 + DETUNE),
	WAVE_SAWTOOTH | VOLUME_19 | 1 | ((uint32_t) NOTE_G_5 + DETUNE),
	WAVE_SAWTOOTH | VOLUME_16 | 1 | ((uint32_t) NOTE_G_5 + DETUNE),
	WAVE_SAWTOOTH | VOLUME_14 | 1 | ((uint32_t) NOTE_G_5 + DETUNE),
	WAVE_SAWTOOTH | VOLUME_12 | 1 | ((uint32_t) NOTE_G_5 + DETUNE),
	WAVE_SAWTOOTH | VOLUME_10 | 1 | ((uint32_t) NOTE_G_5 + DETUNE),
	WAVE_SAWTOOTH | VOLUME_09 | 1 | ((uint32_t) NOTE_G_5 + DETUNE),
	WAVE_SAWTOOTH | VOLUME_07 | 1 | ((uint32_t) NOTE_G_5 + DETUNE),

	WAVE_SAWTOOTH | VOLUME_63 | 1 | ((uint32_t) NOTE_F_5 + DETUNE),
	WAVE_SAWTOOTH | VOLUME_55 | 1 | ((uint32_t) NOTE_F_5 + DETUNE),
	WAVE_SAWTOOTH | VOLUME_48 | 1 | ((uint32_t) NOTE_F_5 + DETUNE),
	WAVE_SAWTOOTH | VOLUME_42 | 1 | ((uint32_t) NOTE_F_5 + DETUNE),
	WAVE_SAWTOOTH | VOLUME_37 | 1 | ((uint32_t) NOTE_F_5 + DETUNE),
	WAVE_SAWTOOTH | VOLUME_33 | 1 | ((uint32_t) NOTE_F_5 + DETUNE),
	WAVE_SAWTOOTH | VOLUME_28 | 1 | ((uint32_t) NOTE_F_5 + DETUNE),
	WAVE_SAWTOOTH | VOLUME_25 | 1 | ((uint32_t) NOTE_F_5 + DETUNE),
	WAVE_SAWTOOTH | VOLUME_22 | 1 | ((uint32_t) NOTE_F_5 + DETUNE),
	WAVE_SAWTOOTH | VOLUME_19 | 1 | ((uint32_t) NOTE_F_5 + DETUNE),

	WAVE_SAWTOOTH | VOLUME_63 | 1 | ((uint32_t) NOTE_E_5 + DETUNE),
	WAVE_SAWTOOTH | VOLUME_55 | 1 | ((uint32_t) NOTE_E_5 + DETUNE),
	WAVE_SAWTOOTH | VOLUME_48 | 1 | ((uint32_t) NOTE_E_5 + DETUNE),
	WAVE_SAWTOOTH | VOLUME_42 | 1 | ((uint32_t) NOTE_E_5 + DETUNE),
	WAVE_SAWTOOTH | VOLUME_37 | 1 | ((uint32_t) NOTE_E_5 + DETUNE),
	WAVE_SAWTOOTH | VOLUME_33 | 1 | ((uint32_t) NOTE_E_5 + DETUNE),
	WAVE_SAWTOOTH | VOLUME_28 | 1 | ((uint32_t) NOTE_E_5 + DETUNE),
	WAVE_SAWTOOTH | VOLUME_25 | 1 | ((uint32_t) NOTE_E_5 + DETUNE),
	WAVE_SAWTOOTH | VOLUME_22 | 1 | ((uint32_t) NOTE_E_5 + DETUNE),
	WAVE_SAWTOOTH | VOLUME_19 | 1 | ((uint32_t) NOTE_E_5 + DETUNE),
	WAVE_SAWTOOTH | VOLUME_16 | 1 | ((uint32_t) NOTE_E_5 + DETUNE),
	WAVE_SAWTOOTH | VOLUME_14 | 1 | ((uint32_t) NOTE_E_5 + DETUNE),
	WAVE_SAWTOOTH | VOLUME_12 | 1 | ((uint32_t) NOTE_E_5 + DETUNE),
	WAVE_SAWTOOTH | VOLUME_10 | 1 | ((uint32_t) NOTE_E_5 + DETUNE),
	WAVE_SAWTOOTH | VOLUME_09 | 1 | ((uint32_t) NOTE_E_5 + DETUNE),
	WAVE_SAWTOOTH | VOLUME_07 | 1 | ((uint32_t) NOTE_E_5 + DETUNE),
	WAVE_SAWTOOTH | VOLUME_06 | 1 | ((uint32_t) NOTE_E_5 + DETUNE),
	WAVE_SAWTOOTH | VOLUME_05 | 1 | ((uint32_t) NOTE_E_5 + DETUNE),
	WAVE_SAWTOOTH | VOLUME_04 | 1 | ((uint32_t) NOTE_E_5 + DETUNE),
	WAVE_SAWTOOTH | VOLUME_03 | 1 | ((uint32_t) NOTE_E_5 + DETUNE),
	WAVE_SAWTOOTH | VOLUME_02 | 2 | ((uint32_t) NOTE_E_5 + DETUNE),
	WAVE_SAWTOOTH | VOLUME_01 | 1 | ((uint32_t) NOTE_E_5 + DETUNE),
	WAVE_SAWTOOTH | VOLUME_00 | 3,

	WAVE_SAWTOOTH | VOLUME_63 | 1 | NOTE_E_5,
	WAVE_SAWTOOTH | VOLUME_55 | 1 | NOTE_E_5,
	WAVE_SAWTOOTH | VOLUME_48 | 1 | NOTE_E_5,
	WAVE_SAWTOOTH | VOLUME_42 | 1 | NOTE_E_5,
	WAVE_SAWTOOTH | VOLUME_37 | 1 | NOTE_E_5,
	WAVE_SAWTOOTH | VOLUME_33 | 1 | NOTE_E_5,
	WAVE_SAWTOOTH | VOLUME_28 | 1 | NOTE_E_5,
	WAVE_SAWTOOTH | VOLUME_25 | 1 | NOTE_E_5,
	WAVE_SAWTOOTH | VOLUME_22 | 1 | NOTE_E_5,
	WAVE_SAWTOOTH | VOLUME_19 | 1 | NOTE_E_5,
	WAVE_SAWTOOTH | VOLUME_16 | 1 | NOTE_E_5,
	WAVE_SAWTOOTH | VOLUME_14 | 1 | NOTE_E_5,
	WAVE_SAWTOOTH | VOLUME_12 | 1 | NOTE_E_5,
	WAVE_SAWTOOTH | VOLUME_10 | 1 | NOTE_E_5,
	WAVE_SAWTOOTH | VOLUME_09 | 1 | NOTE_E_5,
	WAVE_SAWTOOTH | VOLUME_07 | 1 | NOTE_E_5,
	WAVE_SAWTOOTH | VOLUME_06 | 1 | NOTE_E_5,
	WAVE_SAWTOOTH | VOLUME_05 | 1 | NOTE_E_5,
	WAVE_SAWTOOTH | VOLUME_04 | 1 | NOTE_E_5,
	WAVE_SAWTOOTH | VOLUME_03 | 1 | NOTE_E_5,
	WAVE_SAWTOOTH | VOLUME_02 | 2 | NOTE_E_5,
	WAVE_SAWTOOTH | VOLUME_01 | 1 | NOTE_E_5,
	STOP
};

const uint32_t jingle2[] =
{
	WAVE_PWM0 | VOLUME_00 | 26,
	WAVE_PWM0 | VOLUME_63 |  8 | NOTE_C_3,
	WAVE_PWM0 | VOLUME_00 | 18,
	WAVE_PWM0 | VOLUME_63 |  8 | NOTE_G_2,
	WAVE_PWM0 | VOLUME_00 | 18,
	WAVE_PWM0 | VOLUME_63 |  8 | NOTE_C_3,
	WAVE_PWM0 | VOLUME_00 | 18,
	WAVE_PWM0 | VOLUME_63 |  8 | NOTE_G_2,
	WAVE_PWM0 | VOLUME_00 | 18,
	WAVE_PWM0 | VOLUME_63 |  8 | NOTE_C_3,
	WAVE_PWM0 | VOLUME_00 | 18,
	WAVE_PWM0 | VOLUME_63 |  8 | NOTE_G_2,
	WAVE_PWM0 | VOLUME_00 | 18,
	WAVE_PWM0 | VOLUME_63 |  8 | NOTE_B_2,
	WAVE_PWM0 | VOLUME_00 | 18,
	WAVE_PWM0 | VOLUME_63 |  8 | NOTE_G_2,
	WAVE_PWM0 | VOLUME_00 |  8,
	WAVE_PWM0 | VOLUME_63 |  8 | NOTE_B_2,
	WAVE_PWM0 | VOLUME_00 |  2,
	WAVE_PWM0 | VOLUME_63 |  8 | NOTE_C_3,
	WAVE_PWM0 | VOLUME_00 | 18,
	WAVE_PWM0 | VOLUME_63 |  8 | NOTE_G_2,
	WAVE_PWM0 | VOLUME_00 | 18,
	WAVE_PWM0 | VOLUME_63 |  8 | NOTE_C_3,
	WAVE_PWM0 | VOLUME_00 | 18,
	WAVE_PWM0 | VOLUME_63 |  8 | NOTE_G_2,
	WAVE_PWM0 | VOLUME_00 | 18,
	WAVE_PWM0 | VOLUME_63 |  8 | NOTE_C_3,
	WAVE_PWM0 | VOLUME_00 | 18,
	WAVE_PWM0 | VOLUME_63 |  8 | NOTE_G_2,
	WAVE_PWM0 | VOLUME_00 |  8,
	WAVE_PWM0 | VOLUME_63 |  8 | NOTE_E_2,
	WAVE_PWM0 | VOLUME_00 |  2,
	WAVE_PWM0 | VOLUME_63 |  8 | NOTE_C_2,
	STOP
};


const uint32_t *jingle[3] = { jingle0, jingle1, jingle2 };